<?xml version="1.0" encoding="UTF-8"?>
<!DOCTYPE svg PUBLIC "-//W3C//DTD SVG 1.1//EN" "http://www.w3.org/Graphics/SVG/1.1/DTD/svg11.dtd">
<!-- Creator: CorelDRAW 2020 (64 Bit) -->
<svg xmlns="http://www.w3.org/2000/svg" xml:space="preserve" width="17.0935mm" height="18.1922mm" version="1.1" style="shape-rendering:geometricPrecision; text-rendering:geometricPrecision; image-rendering:optimizeQuality; fill-rule:evenodd; clip-rule:evenodd"
viewBox="0 0 440.66 468.99"
 xmlns:xlink="http://www.w3.org/1999/xlink"
 xmlns:xodm="http://www.corel.com/coreldraw/odm/2003">
 <defs>
  <style type="text/css">
   <![CDATA[
    .fil0 {fill:#373435;fill-rule:nonzero}
   ]]>
  </style>
 </defs>
 <g id="Camada_x0020_1">
  <metadata id="CorelCorpID_0Corel-Layer"/>
  <path class="fil0" d="M105.77 448.81c-9.39,-3.31 -17.44,-9.48 -23.1,-17.46 -5.52,-7.79 -8.77,-17.29 -8.77,-27.5l0 -61.45 38.94 0 0 108.9 -7.07 -2.49zm-56.42 -28.2c-9.39,-3.31 -17.44,-9.48 -23.1,-17.46 -5.52,-7.79 -8.77,-17.29 -8.77,-27.5l0 -33.25 38.94 0 0 80.71 -7.07 -2.49zm-31.87 -200.06c0,-13.13 5.35,-25.05 14,-33.69 8.63,-8.63 20.55,-13.98 33.68,-13.98 26.3,0 47.68,21.38 47.68,47.66l0 42.61c0,13.03 -5.23,27.82 -13.31,39.55 -7.81,11.34 -18.42,19.98 -29.84,21.82l-0.83 0.08 -51.38 0 0 -104.07zm41.1 -163.32c4.63,21.15 16.46,39.65 32.78,52.77 16,12.87 36.33,20.58 58.44,20.58l47.68 0 0 76.36c0,24.48 -7.52,47.25 -20.37,66.15 -13.22,19.44 -32.1,34.75 -54.25,43.54l-14.89 5.91 8.44 -13.6c4.43,-7.14 7.93,-14.91 10.31,-22.78 2.34,-7.71 3.59,-15.55 3.59,-23l0 -42.62c0,-17.97 -7.3,-34.25 -19.09,-46.03 -11.8,-11.8 -28.1,-19.1 -46.08,-19.1 -7.25,0 -14.19,1.18 -20.65,3.34 -6.71,2.25 -12.96,5.58 -18.53,9.78l-8.5 6.42 0 -39.5c0,-15.27 2.94,-29.9 8.29,-43.37 5.54,-13.96 13.67,-26.61 23.77,-37.36l6.89 -7.33 2.15 9.84zm138.9 -34.45l0 90.33 -47.68 0c-20.79,0 -39.67,-8.42 -53.4,-22.03 -13.72,-13.6 -22.29,-32.41 -22.47,-53.19l-0.03 -3.09 2.66 -1.54c8.83,-5.11 18.37,-9.11 28.41,-11.79 9.75,-2.61 19.99,-4.01 30.52,-4.01l61.97 0 0 5.31zm121.59 -5.31c13.86,0 27.14,2.75 39.31,7.73 12.63,5.17 24.01,12.73 33.58,22.12l9.26 9.08 -186.25 0 0 -38.93 104.11 0zm-104.11 90.02l0 -33.62 196.69 0 1.44 3.03c2.24,4.69 4.13,9.56 5.65,14.59 1.48,4.91 2.62,10 3.37,15.25l0.87 6.06 -208.02 0 0 -5.32zm-14.17 159.73c9.07,-18.15 14.17,-38.62 14.17,-60.27l0 -76.68 225.7 -0 0 -8.73c0,-33.52 -13.63,-63.9 -35.63,-85.9 -22.02,-22.01 -52.42,-35.64 -85.96,-35.64l-183.56 0c-37.37,0 -71.26,15.19 -95.79,39.72 -24.53,24.52 -39.72,58.38 -39.72,95.73 0,80.07 0,160.13 0,240.2 0,17.97 7.3,34.25 19.09,46.03 11.8,11.79 28.1,19.1 46.08,19.1l2.69 0 1.61 2.14c6.07,8.07 13.96,14.69 23.06,19.24 8.73,4.37 18.6,6.83 29.07,6.83l8.74 0c0,-42.3 0,-94.44 0,-136.74 31.02,-12.55 55.45,-34.94 70.47,-65.03zm-65.1 -215.81l28.21 0 0 28.09 -28.21 0 0 -28.09z"/>
 </g>
</svg>
